<svg width="53" height="67" viewBox="0 0 53 67" fill="none" xmlns="http://www.w3.org/2000/svg">
<path fill-rule="evenodd" clip-rule="evenodd" d="M45.1481 3.94118H7.85185C5.68362 3.94118 3.92593 5.7057 3.92593 7.88235V59.1176C3.92593 61.2943 5.68362 63.0588 7.85185 63.0588H45.1481C47.3164 63.0588 49.0741 61.2943 49.0741 59.1176V7.88235C49.0741 5.7057 47.3164 3.94118 45.1481 3.94118ZM7.85185 0C3.51539 0 0 3.52905 0 7.88235V59.1176C0 63.471 3.51539 67 7.85185 67H45.1481C49.4846 67 53 63.471 53 59.1176V7.88235C53 3.52905 49.4846 0 45.1481 0H7.85185Z" fill="black"/>
<path fill-rule="evenodd" clip-rule="evenodd" d="M10 16C10 14.8954 10.8691 14 11.9412 14H41.0588C42.1309 14 43 14.8954 43 16C43 17.1046 42.1309 18 41.0588 18H11.9412C10.8691 18 10 17.1046 10 16Z" fill="#212529"/>
<path fill-rule="evenodd" clip-rule="evenodd" d="M10 28C10 26.8954 10.8691 26 11.9412 26H41.0588C42.1309 26 43 26.8954 43 28C43 29.1046 42.1309 30 41.0588 30H11.9412C10.8691 30 10 29.1046 10 28Z" fill="#212529"/>
<path fill-rule="evenodd" clip-rule="evenodd" d="M10 39C10 37.8954 10.8691 37 11.9412 37H41.0588C42.1309 37 43 37.8954 43 39C43 40.1046 42.1309 41 41.0588 41H11.9412C10.8691 41 10 40.1046 10 39Z" fill="#212529"/>
<path fill-rule="evenodd" clip-rule="evenodd" d="M10 51C10 49.8954 10.8954 49 12 49H28C29.1046 49 30 49.8954 30 51C30 52.1046 29.1046 53 28 53H12C10.8954 53 10 52.1046 10 51Z" fill="#212529"/>
</svg>
