<svg width="58" height="67" viewBox="0 0 58 67" fill="none" xmlns="http://www.w3.org/2000/svg">
<path fill-rule="evenodd" clip-rule="evenodd" d="M50.063 3.94118H7.93703C5.74528 3.94118 3.96852 5.7057 3.96852 7.88235V59.1176C3.96852 61.2943 5.74529 63.0588 7.93704 63.0588H50.063C52.2547 63.0588 54.0315 61.2943 54.0315 59.1176V7.88235C54.0315 5.70571 52.2547 3.94118 50.063 3.94118ZM7.93703 0C3.55353 0 0 3.52905 0 7.88235V59.1176C0 63.471 3.55354 67 7.93704 67H50.063C54.4465 67 58 63.471 58 59.1176V7.88235C58 3.52905 54.4465 0 50.063 0H7.93703Z" fill="black"/>
<path d="M26.4719 41.3051C26.0481 41.3051 25.8362 41.1168 25.8362 40.7401V37.9153C25.8362 36.2203 26.3236 34.8267 27.2983 33.7345C28.273 32.6422 29.6927 31.4746 31.5575 30.2316C33.295 29.064 34.6088 28.0094 35.4988 27.0678C36.3888 26.1262 36.8337 24.9209 36.8337 23.452C36.8337 21.7571 36.198 20.42 34.9266 19.4407C33.6976 18.4237 32.066 17.9153 30.0318 17.9153C27.9552 17.9153 26.2812 18.4426 25.0098 19.4972C23.7384 20.5141 23.1027 21.8701 23.1027 23.565V25.0339C23.1027 25.4105 22.8908 25.5989 22.467 25.5989L17.6357 25.3729C17.2119 25.3729 17 25.1846 17 24.8079V23.565C17 21.4934 17.5509 19.6667 18.6528 18.0847C19.7547 16.4652 21.3015 15.2222 23.2934 14.3559C25.3276 13.452 27.6373 13 30.2225 13C34.0791 13 37.1728 13.9416 39.5037 15.8249C41.8346 17.7081 43 20.194 43 23.2825C43 24.9397 42.6821 26.371 42.0465 27.5763C41.4108 28.7815 40.6479 29.7797 39.7579 30.5706C38.868 31.3239 37.7237 32.1525 36.3252 33.0565C34.8419 34.0358 33.74 34.8832 33.0196 35.5989C32.3415 36.3145 32.0024 37.1808 32.0024 38.1977V40.7401C32.0024 41.1168 31.7905 41.3051 31.3667 41.3051H26.4719ZM28.7604 53C27.5738 53 26.599 52.661 25.8362 51.9831C25.0733 51.3051 24.6919 50.4388 24.6919 49.3842C24.6919 48.3296 25.0733 47.4633 25.8362 46.7853C26.599 46.1073 27.5738 45.7684 28.7604 45.7684C29.947 45.7684 30.9218 46.1073 31.6846 46.7853C32.4474 47.4633 32.8288 48.3296 32.8288 49.3842C32.8288 50.4388 32.4474 51.3051 31.6846 51.9831C30.9218 52.661 29.947 53 28.7604 53Z" fill="black"/>
</svg>
