<svg width="58" height="71" viewBox="0 0 58 71" fill="none" xmlns="http://www.w3.org/2000/svg">
<path fill-rule="evenodd" clip-rule="evenodd" d="M50.0765 14.9216H18.9236C16.7355 14.9216 14.9618 16.6773 14.9618 18.8431V63.1569C14.9618 65.3227 16.7355 67.0784 18.9235 67.0784H50.0764C52.2645 67.0784 54.0382 65.3227 54.0382 63.1569V18.8431C54.0382 16.6773 52.2645 14.9216 50.0765 14.9216ZM18.9236 11C14.5475 11 11 14.5115 11 18.8431V63.1569C11 67.4885 14.5475 71 18.9235 71H50.0764C54.4525 71 58 67.4885 58 63.1569V18.8431C58 14.5115 54.4525 11 50.0765 11H18.9236Z" fill="black"/>
<path fill-rule="evenodd" clip-rule="evenodd" d="M7.92356 3.92157H39.0765C41.2645 3.92157 43.0382 5.67731 43.0382 7.84313V10.5882H47V7.84313C47 3.51149 43.4525 0 39.0765 0H7.92356C3.5475 0 0 3.51149 0 7.84313V52.1569C0 56.4885 3.54749 60 7.92355 60H10.4459V56.0784H7.92355C5.73552 56.0784 3.96178 54.3227 3.96178 52.1569V7.84313C3.96178 5.67731 5.73553 3.92157 7.92356 3.92157Z" fill="white"/>
<path fill-rule="evenodd" clip-rule="evenodd" d="M46.9115 6.66665C46.9698 7.05041 47 7.44328 47 7.84313V11.5882H43.0382V7.84313C43.0382 5.6773 41.2645 3.92157 39.0765 3.92157H7.92356C5.73553 3.92157 3.96178 5.67731 3.96178 7.84313V52.1569C3.96178 54.3227 5.73552 56.0784 7.92355 56.0784H11.4459V60H7.92355C7.432 60 6.95091 59.9557 6.48412 59.8709C2.7953 59.2008 0 56.0019 0 52.1569V7.84313C0 3.51149 3.5475 0 7.92356 0H39.0765C43.0486 0 46.338 2.89312 46.9115 6.66665Z" fill="black"/>
</svg>
