<svg width="69" height="77" viewBox="0 0 69 77" fill="none" xmlns="http://www.w3.org/2000/svg">
<path fill-rule="evenodd" clip-rule="evenodd" d="M47 7.94199C47 3.55575 43.4425 0 39.0542 0H7.94581C3.55746 0 0 3.55575 0 7.94199V22.6218C0 27.0081 3.55746 30.5638 7.94581 30.5638H24.5021C24.6045 30.6492 24.7203 30.7458 24.8488 30.853C25.4257 31.3345 26.2579 32.0302 27.2781 32.8867C29.3189 34.5998 32.1111 36.955 35.1174 39.5237C35.7067 40.0272 36.5352 40.142 37.2394 39.8178C37.9435 39.4935 38.3946 38.7894 38.3946 38.0145V30.5638H39.0542C43.4425 30.5638 47 27.0081 47 22.6218V7.94199ZM26.4908 27.0513C26.1341 26.755 25.6849 26.5928 25.2211 26.5928H7.94581C5.75164 26.5928 3.9729 24.8149 3.9729 22.6218V7.94199C3.9729 5.74887 5.75164 3.97099 7.94581 3.97099H39.0542C41.2484 3.97099 43.0271 5.74887 43.0271 7.94199V22.6218C43.0271 24.8149 41.2484 26.5928 39.0542 26.5928H36.4081C35.311 26.5928 34.4217 27.4818 34.4217 28.5783V33.7164C32.6852 32.2444 31.112 30.9193 29.8332 29.8459C28.8097 28.9867 27.9746 28.2884 27.3951 27.8048C27.1054 27.563 26.8796 27.3749 26.726 27.2471L26.4908 27.0513Z" fill="black"/>
<path fill-rule="evenodd" clip-rule="evenodd" d="M61.5514 39.8547C61.1771 39.7885 60.6835 39.9211 60.2493 40.3458L44.3516 55.8979C43.8199 56.418 43.451 57.0809 43.2897 57.8061L42.3865 61.8653L47.4184 61.2836C47.8465 61.2341 48.2456 61.0426 48.5516 60.7398L64.614 44.8439C65.0767 44.386 65.2205 43.8292 65.1222 43.3979C64.8093 42.0247 64.4167 41.311 63.9784 40.8764C63.5528 40.4545 62.8749 40.0892 61.5514 39.8547ZM57.556 37.6062C58.7089 36.4783 60.4095 35.7553 62.2239 36.0767C63.9814 36.388 65.5066 36.9817 66.6898 38.1546C67.8602 39.3149 68.4822 40.8318 68.8731 42.5474C69.3103 44.4659 68.5753 46.3287 67.3231 47.5679L51.2606 63.4639C50.3427 64.3723 49.1456 64.9468 47.8612 65.0953L40.1447 65.9872C39.5265 66.0587 38.9119 65.8274 38.4951 65.3664C38.0783 64.9054 37.9109 64.2717 38.0457 63.6657L39.5345 56.9747C39.8572 55.5243 40.595 54.1985 41.6583 53.1583L57.556 37.6062Z" fill="black"/>
<path fill-rule="evenodd" clip-rule="evenodd" d="M13 28.7859V69.1624C13 73.491 16.4775 77 20.7672 77H52.2328C56.5225 77 60 73.491 60 69.1624V52.1409L56.1164 56.0286V69.1624C56.1164 71.3267 54.3777 73.0812 52.2328 73.0812H20.7672C18.6223 73.0812 16.8836 71.3267 16.8836 69.1624V28.7859H13ZM44.6659 16.9188H52.2328C54.3777 16.9188 56.1164 18.6733 56.1164 20.8376V41.4741L58.6663 38.9508C59.0515 38.5697 59.5075 38.2708 60 38.0852V20.8376C60 16.509 56.5225 13 52.2328 13H44.6659V16.9188Z" fill="black"/>
</svg>
